# xmcd
#
# Track frame offsets:
#	150
#	22642
#	39672
#	57605
#	74340
#	94387
#	115745
#	136765
#	152467
#	169885
#
# Disc length: 2537 seconds
#
# Revision: 1
# Processed by: cddbd v1.4PL0 Copyright (c) Steve Scherf et al.
# Submitted via: MusicManager 7.0.3.0 
#
DISCID=7e09e70a
DTITLE=Conn, Steve  (ft. Sonny Landreth) - River Of Madness
DYEAR=1994
DGENRE=country
TTITLE0=Where Do We Go From Here
TTITLE1=River Of Madness
TTITLE2=Good Intentions
TTITLE3=Love Is The Word
TTITLE4=Midnight On The Delta
TTITLE5=Mardi Gras Morning
TTITLE6=Morning Light
TTITLE7=Time And Time Again
TTITLE8=The One And Only Truth
TTITLE9=In An Angel's Arms
EXTD=Taxim Records 1995
EXTT0=
EXTT1=
EXTT2=
EXTT3=
EXTT4=
EXTT5=
EXTT6=
EXTT7=
EXTT8=
EXTT9=
PLAYORDER=
